<?xml version="1.0" encoding="UTF-8"?>
<svg width="32px" height="30px" viewBox="0 0 32 30" version="1.1" xmlns="http://www.w3.org/2000/svg" xmlns:xlink="http://www.w3.org/1999/xlink">
    <title>编组 10</title>
    <g id="页面-1" stroke="none" stroke-width="1" fill="none" fill-rule="evenodd">
        <g id="首页2" transform="translate(-435.000000, -270.000000)" fill-rule="nonzero">
            <g id="1" transform="translate(0.000000, 189.000000)">
                <g id="编组-10" transform="translate(435.000000, 81.000000)">
                    <path d="M20.48,2.27555553 L30.0282311,4.18474667 C31.0923378,4.39743685 31.8582076,5.33191236 31.857778,6.41706667 L31.857778,27.3066667 C31.857778,28.5634213 30.8389769,29.5822222 29.5822222,29.5822222 L20.48,29.5822222 L20.48,2.27555553 L20.48,2.27555553 Z" id="路径" fill-opacity="0.6" fill="#FF9B06"></path>
                    <path d="M-2.18491891e-13,2.27555553 C-2.18491891e-13,1.01880091 1.01880094,7.99360578e-14 2.27555557,7.99360578e-14 L18.2044445,7.99360578e-14 C19.4611991,7.99360578e-14 20.48,1.01880092 20.48,2.27555553 L20.48,29.5822222 L2.27555557,29.5822222 C1.01880094,29.5822222 -2.18491891e-13,28.5634213 -2.18491891e-13,27.3066667 L-2.18491891e-13,2.27555553 Z" id="路径" fill="#FF9B06"></path>
                    <path d="M6.2577778,7.96444443 C6.2577778,7.02187846 7.02187849,6.25777777 7.96444447,6.25777777 L12.5155556,6.25777777 C13.4581215,6.25777777 14.2222222,7.02187846 14.2222222,7.96444443 C14.2222222,8.90701041 13.4581215,9.6711111 12.5155556,9.6711111 L7.96444447,9.6711111 C7.02187849,9.6711111 6.2577778,8.90701041 6.2577778,7.96444443 L6.2577778,7.96444443 Z M6.2577778,14.7911111 C6.2577778,13.8485451 7.02187849,13.0844444 7.96444447,13.0844444 L12.5155556,13.0844444 C13.4581215,13.0844444 14.2222222,13.8485451 14.2222222,14.7911111 C14.2222222,15.7336771 13.4581215,16.4977778 12.5155556,16.4977778 L7.96444447,16.4977778 C7.02187849,16.4977778 6.2577778,15.7336771 6.2577778,14.7911111 Z M22.1866667,14.7911111 C22.1866667,13.8485451 22.9507674,13.0844444 23.8933333,13.0844444 L26.1688889,13.0844444 C27.1114549,13.0844444 27.8755556,13.8485451 27.8755556,14.7911111 C27.8755556,15.7336771 27.1114549,16.4977778 26.1688889,16.4977778 L23.8933333,16.4977778 C22.9507674,16.4977778 22.1866667,15.7336771 22.1866667,14.7911111 L22.1866667,14.7911111 Z M6.82666667,22.7555555 C6.82666667,21.4988009 7.84546761,20.48 9.10222223,20.48 L11.3777778,20.48 C12.6345324,20.48 13.6533333,21.4988009 13.6533333,22.7555555 L13.6533333,26.1688889 C13.6533333,26.4706463 13.5334607,26.7600445 13.320086,26.9734193 C13.1067112,27.186794 12.817313,27.3066667 12.5155556,27.3066667 L7.96444447,27.3066667 C7.66268703,27.3066667 7.37328879,27.186794 7.15991406,26.9734193 C6.94653933,26.7600445 6.82666667,26.4706463 6.82666667,26.1688889 L6.82666667,22.7555555 L6.82666667,22.7555555 Z M25.0311111,21.6177778 C24.7293537,21.6177778 24.4399555,21.7376504 24.2265807,21.9510251 C24.013206,22.1643999 23.8933333,22.4537981 23.8933333,22.7555555 L23.8933333,26.1688889 C23.8933333,26.7972662 24.4027338,27.3066666 25.0311111,27.3066666 C25.6594884,27.3066666 26.1688889,26.7972662 26.1688889,26.1688889 L26.1688889,22.7555555 C26.1688889,22.1271782 25.6594884,21.6177778 25.0311111,21.6177778 L25.0311111,21.6177778 Z" id="形状" fill="#FFFFFF"></path>
                </g>
            </g>
        </g>
    </g>
</svg>