<?xml version="1.0" encoding="UTF-8"?>
<svg width="32px" height="32px" viewBox="0 0 32 32" version="1.1" xmlns="http://www.w3.org/2000/svg" xmlns:xlink="http://www.w3.org/1999/xlink">
    <title>编组</title>
    <g id="页面-1" stroke="none" stroke-width="1" fill="none" fill-rule="evenodd">
        <g id="首页2" transform="translate(-80.000000, -270.000000)" fill="#3C64F0" fill-rule="nonzero">
            <g id="1" transform="translate(0.000000, 189.000000)">
                <g transform="translate(40.000000, 41.000000)" id="编组-23">
                    <g transform="translate(40.000000, 40.000000)" id="编组">
                        <path d="M1.04642857,16.4357143 L1.12857143,16.5107143 L13.4607143,23.2642857 C14.0892857,23.7892857 14.9071429,24.0785714 15.7678571,24.0785714 C16.6285714,24.0785714 17.4464286,23.7892857 18.075,23.2642857 L30.3892857,16.5214286 L30.4071429,16.5107143 L30.4892857,16.4357143 C31.7321429,15.3178571 31.8821429,13.5071429 30.8392857,12.2214286 C30.7785714,12.1464286 30.6642857,12.1321429 30.5892857,12.1964286 L29.3857143,13.175 C29.3107143,13.2357143 29.2964286,13.35 29.3607143,13.425 C29.7392857,13.8892857 29.7071429,14.5142857 29.2857143,14.95 L16.9892857,21.6821429 L16.9714286,21.6928571 L16.8892857,21.7678571 C16.2821429,22.3142857 15.2535714,22.3142857 14.6464286,21.7678571 L14.5642857,21.6928571 L2.25357143,14.95 C1.83214286,14.5142857 1.8,13.8892857 2.17857143,13.425 C2.23928571,13.35 2.22857143,13.2357143 2.15357143,13.175 L0.95,12.1964286 C0.875,12.1357143 0.760714286,12.1464286 0.7,12.2214286 C-0.35,13.5035714 -0.196428571,15.3178571 1.04642857,16.4357143 Z" id="路径"></path>
                        <path d="M30.5892857,18.8678571 L29.3857143,19.8464286 C29.3107143,19.9071429 29.2964286,20.0214286 29.3607143,20.0964286 C29.7392857,20.5607143 29.7071429,21.1857143 29.2857143,21.6214286 L16.9892857,28.3535714 L16.9714286,28.3642857 L16.8892857,28.4392857 C16.2821429,28.9857143 15.2535714,28.9857143 14.6464286,28.4392857 L14.5642857,28.3642857 L2.25357143,21.6214286 C1.83214286,21.1857143 1.8,20.5607143 2.17857143,20.0964286 C2.23928571,20.0214286 2.22857143,19.9071429 2.15357143,19.8464286 L0.95,18.8678571 C0.875,18.8071429 0.760714286,18.8178571 0.7,18.8928571 C-0.342857143,20.175 -0.192857143,21.9892857 1.05,23.1071429 L1.13214286,23.1821429 L13.4642857,29.9357143 C14.0928571,30.4607143 14.9107143,30.75 15.7714286,30.75 C16.6321429,30.75 17.45,30.4607143 18.0785714,29.9357143 L30.3928571,23.1928571 L30.4107143,23.1821429 L30.4928571,23.1071429 C31.7357143,21.9892857 31.8857143,20.1785714 30.8428571,18.8928571 C30.7785714,18.8178571 30.6678571,18.8035714 30.5892857,18.8678571 Z M1.68214286,10.45 L3.62857143,11.5142857 L14.0071429,17.1964286 C14.9785714,18.0714286 16.5571429,18.0714286 17.5285714,17.1964286 L27.9071429,11.5142857 L29.8535714,10.45 C29.9464286,10.3678571 30.0285714,10.2785714 30.1035714,10.1857143 C30.8142857,9.31071429 30.7357143,8.075 29.8535714,7.28214286 L17.5285714,0.689285714 C16.5571429,-0.185714286 14.9785714,-0.185714286 14.0071429,0.689285714 L1.68214286,7.28214286 C0.803571429,8.075 0.721428571,9.30714286 1.43214286,10.1857143 C1.51071429,10.2785714 1.58928571,10.3678571 1.68214286,10.45 Z" id="形状"></path>
                    </g>
                </g>
            </g>
        </g>
    </g>
</svg>