<?xml version="1.0" standalone="no"?><!DOCTYPE svg PUBLIC "-//W3C//DTD SVG 1.1//EN" "http://www.w3.org/Graphics/SVG/1.1/DTD/svg11.dtd"><svg t="1632902589221" class="icon" viewBox="0 0 1024 1024" version="1.1" xmlns="http://www.w3.org/2000/svg" p-id="1900" xmlns:xlink="http://www.w3.org/1999/xlink" width="200" height="200"><defs><style type="text/css"></style></defs><path d="M695.466667 936.490667h-141.653334a32 32 0 0 1 0-64h141.653334c107.818667 0 177.493333-73.685333 177.493333-187.690667V337.024c0-114.048-69.674667-187.690667-177.493333-187.690667H326.4C218.837333 149.333333 149.333333 222.976 149.333333 337.024v347.776c0 114.005333 69.504 187.690667 177.066667 187.690667h30.762667a32 32 0 0 1 0 64H326.4C182.229333 936.490667 85.333333 835.328 85.333333 684.8V337.024C85.333333 186.496 182.229333 85.333333 326.4 85.333333h369.066667c144.469333 0 241.493333 101.162667 241.493333 251.690667v347.776c0 150.528-97.024 251.690667-241.493333 251.690667zM225.365333 733.098667a32 32 0 0 1-23.253333-54.016l65.28-68.864c17.365333-18.432 40.96-28.586667 66.304-28.714667 24.533333 1.621333 49.066667 9.941333 66.645333 28.202667l37.546667 38.314666a27.733333 27.733333 0 0 0 22.101333 8.704 28.885333 28.885333 0 0 0 21.248-10.624l95.146667-115.712a104.277333 104.277333 0 0 1 76.032-37.888 105.386667 105.386667 0 0 1 78.933333 31.573334l88.618667 91.306666a32 32 0 0 1-45.994667 44.586667l-88.576-91.306667a38.144 38.144 0 0 0-30.378666-12.202666 39.509333 39.509333 0 0 0-29.184 14.592l-95.146667 115.712a93.312 93.312 0 0 1-67.84 33.92 95.701333 95.701333 0 0 1-70.613333-27.818667l-37.802667-38.570667c-5.546667-5.717333-12.629333-10.752-20.48-8.789333a27.776 27.776 0 0 0-20.096 8.704l-65.28 68.906667a31.744 31.744 0 0 1-23.210667 9.984z m139.861334-236.544a106.922667 106.922667 0 0 1-106.837334-106.837334A106.922667 106.922667 0 0 1 365.226667 282.88a106.922667 106.922667 0 0 1 106.794666 106.837333 106.922667 106.922667 0 0 1-106.794666 106.837334z m0-149.674667a42.88 42.88 0 1 0 0.085333 85.717333 42.88 42.88 0 0 0-0.085333-85.76z" fill="#200E32" p-id="1901"></path></svg>